<?xml version="1.0" encoding="UTF-8" standalone="no"?>
<!-- Created with Inkscape (http://www.inkscape.org/) -->

<svg
   width="512"
   height="512"
   viewBox="0 0 135.46666 135.46667"
   version="1.1"
   id="svg5"
   inkscape:version="1.1 (c68e22c387, 2021-05-23)"
   sodipodi:docname="drawing.svg"
   inkscape:export-filename="C:\Users\Anonymous\Desktop\cv\aparat.png"
   inkscape:export-xdpi="96"
   inkscape:export-ydpi="96"
   xmlns:inkscape="http://www.inkscape.org/namespaces/inkscape"
   xmlns:sodipodi="http://sodipodi.sourceforge.net/DTD/sodipodi-0.dtd"
   xmlns="http://www.w3.org/2000/svg"
   xmlns:svg="http://www.w3.org/2000/svg">
  <sodipodi:namedview
     id="namedview7"
     pagecolor="#cccccc"
     bordercolor="#eeeeee"
     borderopacity="1"
     inkscape:pageshadow="0"
     inkscape:pageopacity="0"
     inkscape:pagecheckerboard="true"
     inkscape:document-units="px"
     showgrid="false"
     inkscape:snap-global="false"
     inkscape:zoom="0.46057098"
     inkscape:cx="4.342436"
     inkscape:cy="297.45687"
     inkscape:window-width="1024"
     inkscape:window-height="745"
     inkscape:window-x="-8"
     inkscape:window-y="-8"
     inkscape:window-maximized="1"
     inkscape:current-layer="layer1"
     inkscape:snap-bbox="true"
     inkscape:bbox-paths="true"
     inkscape:bbox-nodes="true"
     inkscape:snap-bbox-edge-midpoints="true"
     inkscape:snap-bbox-midpoints="true"
     inkscape:object-paths="true"
     inkscape:snap-intersection-paths="true"
     inkscape:snap-smooth-nodes="true"
     inkscape:snap-midpoints="true"
     units="px"
     width="512px" />
  <defs
     id="defs2">
    <style
       id="style826">.cls-1{fill:#fff;}.cls-2{fill:#ed145b;}</style>
  </defs>
  <g
     inkscape:label="Layer 1"
     inkscape:groupmode="layer"
     id="layer1">
    <g
       id="g960"
       transform="matrix(1.0932955,0,0,1.0932955,-6.3192143,-6.3192141)">
      <path
         id="path2655"
         style="fill:#424242;fill-opacity:1;stroke:none;stroke-width:0.228354px;stroke-linecap:butt;stroke-linejoin:miter;stroke-opacity:1"
         d="m 110.73559,113.45375 -12.567957,7.25605 -2.520369,6.6807 12.023386,-6.94206 c 2.23697,-1.95467 3.16412,-4.28095 3.06494,-6.99469 z" />
      <path
         id="path2747"
         style="fill:#595959;fill-opacity:1;stroke:none;stroke-width:0.228354px;stroke-linecap:butt;stroke-linejoin:miter;stroke-opacity:1"
         d="m 44.930322,6.7779802 c -0.745473,0.011697 -1.482836,0.1363005 -2.212181,0.3737522 l -13.773508,7.9522546 6.989335,1.339798 14.033974,-8.10256 C 48.249757,7.272902 46.570362,6.7522383 44.930322,6.7779802 Z m 66.022028,48.8678058 -12.82441,7.40412 0.03969,57.659894 12.56796,-7.25605 z" />
      <path
         id="path3012"
         style="fill:#757575;fill-opacity:1;stroke:none;stroke-width:0.228354px;stroke-linecap:butt;stroke-linejoin:miter;stroke-opacity:1"
         d="m 49.961697,8.34524 -14.027729,8.098545 51.33644,28.644184 13.045182,-7.670826 z" />
      <path
         id="path3280"
         style="fill:#949494;fill-opacity:1;stroke:none;stroke-width:0.228354px;stroke-linecap:butt;stroke-linejoin:miter;stroke-opacity:1"
         d="m 100.31559,37.417143 -13.045182,7.670826 c 6.058578,4.385696 10.003194,10.159264 10.857532,17.961937 l 12.82441,-7.40412 c -0.55538,-7.703212 -4.46721,-13.580205 -10.63676,-18.228643 z" />
      <rect
         style="fill:#303030;fill-opacity:1;stroke:none;stroke-width:1.08234;stroke-linecap:round;stroke-linejoin:round"
         id="rect965"
         width="84.513908"
         height="82.469513"
         x="28.069504"
         y="-3.7510719"
         ry="13.022862"
         transform="matrix(0.87334354,0.48710477,0,1,0,0)" />
      <g
         id="icon--color-white"
         transform="matrix(0.81542879,0.25991638,0.03494119,0.81454353,32.365464,35.01982)">
        <path
           class="cls-1"
           d="M 29.49,2 23.2,0.36 A 10.58,10.58 0 0 0 10.25,7.87 L 8.68,13.8 A 32.4,32.4 0 0 1 29.49,2 Z"
           id="path832" />
        <path
           class="cls-1"
           d="m 1.9,39.33 -1.54,5.81 a 10.58,10.58 0 0 0 7.51,12.94 l 6,1.6 A 32.41,32.41 0 0 1 1.9,39.33 Z"
           id="path834" />
        <path
           class="cls-1"
           d="M 60.46,10.25 53.73,8.46 a 32.4,32.4 0 0 1 12.4,21.7 l 1.85,-7 A 10.58,10.58 0 0 0 60.46,10.25 Z"
           id="path836" />
        <path
           class="cls-1"
           d="M 38.69,66.26 45.14,68 A 10.58,10.58 0 0 0 58.08,60.49 L 59.9,53.65 A 32.42,32.42 0 0 1 38.69,66.26 Z"
           id="path838" />
        <path
           class="cls-2"
           d="M 34.17,4.54 A 29.63,29.63 0 1 0 63.79,34.17 29.63,29.63 0 0 0 34.17,4.54 Z M 17.39,19.32 a 8.46,8.46 0 1 1 6.71,9.91 8.46,8.46 0 0 1 -6.71,-9.91 z M 29.7,44.92 A 8.46,8.46 0 1 1 23,35 a 8.46,8.46 0 0 1 6.7,9.92 z m 3.59,-6.85 a 3.76,3.76 0 1 1 4.41,-3 3.76,3.76 0 0 1 -4.41,3 z M 50.94,49 A 8.46,8.46 0 1 1 44.23,39.09 8.46,8.46 0 0 1 50.94,49 Z m -5.6,-15.68 a 8.46,8.46 0 1 1 9.91,-6.71 8.46,8.46 0 0 1 -9.91,6.72 z"
           id="path840" />
      </g>
    </g>
  </g>
</svg>
